<svg width="40" height="40" viewBox="0 0 40 40" xmlns="http://www.w3.org/2000/svg">
  <path fill="#2dd4bf" d="M0 20C0 10.5719 0 5.85786 2.92893 2.92893C5.85786 0 10.5719 0 20 0C29.4281 0 34.1421 0 37.0711 2.92893C40 5.85786 40 10.5719 40 20C40 29.4281 40 34.1421 37.0711 37.0711C34.1421 40 29.4281 40 20 40C10.5719 40 5.85786 40 2.92893 37.0711C0 34.1421 0 29.4281 0 20Z"></path>
  <path fill="#0c4a6e" d="M24 26C24.5523 26 25.0101 26.4521 24.9004 26.9934C24.7065 27.9494 24.2355 28.8355 23.5355 29.5355C22.5979 30.4732 21.3261 31 20 31C18.6739 31 17.4022 30.4732 16.4645 29.5355C15.7645 28.8355 15.2935 27.9494 15.0997 26.9934C14.9899 26.4521 15.4477 26 16 26L24 26Z"></path>
  <path fill="#0c4a6e" d="M26.1023 17.7765C25.5688 17.9194 25.2421 18.4775 25.5126 18.959C25.7973 19.4658 26.1911 19.9081 26.6702 20.2514C27.4224 20.7904 28.3382 21.052 29.2617 20.9914C30.1851 20.9309 31.059 20.5521 31.7344 19.9195C32.4099 19.2869 32.845 18.4396 32.9658 17.5221C33.0866 16.6046 32.8856 15.6736 32.3969 14.8877C31.9082 14.1019 31.1621 13.5098 30.2858 13.2123C29.4095 12.9148 28.4572 12.9304 27.5911 13.2564C27.0395 13.464 26.5447 13.7893 26.1385 14.2051C25.7526 14.6002 25.9237 15.2239 26.402 15.5L26.9093 15.7929C27.6808 16.2384 27.5287 17.3943 26.6681 17.6249L26.1023 17.7765Z"></path>
  <path fill="#0c4a6e" d="M13.8978 17.7765C14.4313 17.9194 14.758 18.4775 14.4875 18.959C14.2028 19.4658 13.809 19.9081 13.33 20.2514C12.5778 20.7904 11.6619 21.052 10.7385 20.9914C9.81502 20.9309 8.94113 20.5521 8.2657 19.9195C7.59027 19.2869 7.15508 18.4396 7.03429 17.5221C6.9135 16.6046 7.11457 15.6736 7.60326 14.8877C8.09194 14.1019 8.838 13.5098 9.71431 13.2123C10.5906 12.9148 11.543 12.9304 12.4091 13.2564C12.9606 13.464 13.4555 13.7893 13.8617 14.2051C14.2476 14.6002 14.0764 15.2239 13.5981 15.5L13.0908 15.7929C12.3193 16.2384 12.4715 17.3943 13.332 17.6249L13.8978 17.7765Z"></path>
</svg>
